<?xml version="1.0" encoding="UTF-8" standalone="no"?><svg xmlns="http://www.w3.org/2000/svg" xmlns:xlink="http://www.w3.org/1999/xlink" contentScriptType="application/ecmascript" contentStyleType="text/css" height="80px" preserveAspectRatio="none" style="width:230px;height:80px;background:#FFFFFF;" version="1.1" viewBox="0 0 230 80" width="230px" zoomAndPan="magnify"><defs/><g><!--MD5=[00c914b7f9cccd1c466daf7c5677711e]
cluster macwinnie\\PHPHelpers--><polygon fill="#FFFFFF" points="16,6,203,6,210,28.2969,213,28.2969,213,73,16,73,16,6" style="stroke:#000000;stroke-width:1.5;"/><line style="stroke:#000000;stroke-width:1.5;" x1="16" x2="210" y1="28.2969" y2="28.2969"/><text fill="#000000" font-family="sans-serif" font-size="14" font-weight="bold" lengthAdjust="spacing" textLength="181" x="20" y="20.9951">macwinnie\PHPHelpers</text><!--MD5=[b4c9b08663941a2f98323a36e08d8d3c]
class macwinnie\\PHPHelpers\\Logger--><rect codeLine="15" fill="#FEFECE" height="32" id="macwinnie\\PHPHelpers\\Logger" style="stroke:#A80036;stroke-width:1.5;" width="75" x="77" y="33"/><ellipse cx="92" cy="49" fill="#ADD1B2" rx="11" ry="11" style="stroke:#A80036;stroke-width:1.0;"/><path d="M94.9688,54.6406 Q94.3906,54.9375 93.75,55.0781 Q93.1094,55.2344 92.4063,55.2344 Q89.9063,55.2344 88.5781,53.5938 Q87.2656,51.9375 87.2656,48.8125 Q87.2656,45.6875 88.5781,44.0313 Q89.9063,42.375 92.4063,42.375 Q93.1094,42.375 93.75,42.5313 Q94.4063,42.6875 94.9688,42.9844 L94.9688,45.7031 Q94.3438,45.125 93.75,44.8594 Q93.1563,44.5781 92.5313,44.5781 Q91.1875,44.5781 90.5,45.6563 Q89.8125,46.7188 89.8125,48.8125 Q89.8125,50.9063 90.5,51.9844 Q91.1875,53.0469 92.5313,53.0469 Q93.1563,53.0469 93.75,52.7813 Q94.3438,52.5 94.9688,51.9219 L94.9688,54.6406 Z " fill="#000000"/><text fill="#000000" font-family="sans-serif" font-size="12" lengthAdjust="spacing" textLength="43" x="106" y="53.1543">Logger</text><!--MD5=[84e5b95561e2ec577d8f98013205a5b7]
@startuml
   skinparam ArrowColor #516f42
   skinparam activityBorderColor #516f42
   skinparam activityBackgroundColor #ffffff
   skinparam activityDiamondBorderColor #516f42
   skinparam activityDiamondBackgroundColor #ffffff
   skinparam shadowing false

skinparam shadowing false
skinparam linetype ortho
hide empty members
left to right direction
set namespaceSeparator \\


class \\macwinnie\\PHPHelpers\\Logger {
}

@enduml

PlantUML version 1.2021.12(Tue Oct 05 16:01:58 UTC 2021)
(GPL source distribution)
Java Runtime: OpenJDK Runtime Environment
JVM: OpenJDK 64-Bit Server VM
Default Encoding: ANSI_X3.4-1968
Language: en
Country: US
--></g></svg>